<?xml version="1.0" standalone="no"?>
<!DOCTYPE svg PUBLIC "-//W3C//DTD SVG 20010904//EN"
 "http://www.w3.org/TR/2001/REC-SVG-20010904/DTD/svg10.dtd">
<svg version="1.0" xmlns="http://www.w3.org/2000/svg"
 width="300.000000pt" height="46.000000pt" viewBox="0 0 300.000000 46.000000"
 preserveAspectRatio="xMidYMid meet">
<metadata>
Created by potrace 1.10, written by Peter Selinger 2001-2011
</metadata>
<g transform="translate(0.000000,46.000000) scale(0.100000,-0.100000)"
fill="#000000" stroke="none">
<path d="M2171 439 c-123 -24 -204 -140 -181 -259 5 -25 9 -48 10 -52 1 -18
67 -81 103 -100 33 -17 55 -19 132 -16 83 3 95 6 129 32 48 37 93 106 68 106
-5 0 -16 -16 -25 -35 -9 -18 -27 -41 -41 -50 -34 -23 -96 -29 -126 -13 -32 18
-66 81 -74 141 l-7 47 142 0 142 0 -6 36 c-3 19 -17 55 -31 79 -41 69 -137
103 -235 84z m83 -22 c14 -10 20 -32 24 -85 l5 -72 -63 0 -63 0 7 63 c11 95
43 128 90 94z m90 -32 c26 -20 56 -66 56 -87 0 -15 -9 -18 -45 -18 -43 0 -45
1 -45 29 0 16 -3 43 -6 60 -7 35 7 41 40 16z m-202 -122 c4 -138 14 -171 66
-221 l27 -24 -35 7 c-53 10 -113 42 -145 75 -26 27 -30 40 -33 101 -5 82 7
117 55 159 57 51 61 45 65 -97z"/>
<path d="M332 298 c-27 -79 -57 -165 -66 -193 -23 -70 -29 -77 -72 -85 -28 -6
-12 -8 56 -7 52 0 80 2 62 4 -41 5 -48 22 -32 78 l13 45 57 0 57 0 13 -45 c15
-55 9 -72 -27 -78 -15 -2 40 -4 122 -4 83 0 139 2 125 4 -14 3 -30 9 -37 15
-6 5 -45 99 -85 209 l-73 199 -31 0 -32 0 -50 -142z m162 -68 c36 -99 66 -182
66 -185 0 -3 -22 -5 -49 -5 -46 0 -49 1 -55 31 -3 17 -12 45 -20 62 -7 18 -26
67 -41 109 -24 69 -25 81 -15 115 28 87 39 76 114 -127z m-118 -5 l22 -65 -50
0 c-36 0 -48 3 -45 13 3 6 14 36 23 65 10 28 20 52 23 52 3 0 16 -30 27 -65z"/>
<path d="M1281 245 c1 -139 -2 -200 -10 -208 -17 -17 -101 -13 -112 4 -5 8 -9
98 -9 202 l0 187 -125 0 c-77 0 -125 -4 -125 -10 0 -5 13 -10 28 -10 49 0 52
-11 52 -182 0 -145 -2 -160 -20 -178 -24 -24 -53 -26 -74 -4 -13 13 -16 46
-16 200 l0 184 -120 0 c-73 0 -120 -4 -120 -10 0 -5 11 -10 25 -10 14 0 29 -8
35 -19 5 -11 10 -82 10 -158 1 -150 6 -171 56 -204 22 -14 47 -19 101 -19 63
0 75 3 104 27 l32 28 -7 -28 -6 -27 310 0 c333 0 360 4 394 51 24 35 21 102
-7 135 -18 21 -35 28 -82 33 l-60 7 49 8 c81 13 114 65 84 130 -24 53 -49 60
-225 64 l-163 4 1 -197z m232 153 c22 -26 23 -105 1 -136 -10 -14 -25 -22 -45
-22 l-29 0 0 95 0 95 28 -6 c15 -3 35 -15 45 -26z m-105 -174 l2 -182 -32 -4
c-67 -7 -67 -9 -67 120 -1 64 2 148 5 185 l7 68 41 -3 41 -3 3 -181z m188 176
c24 0 54 -39 54 -70 0 -23 -7 -33 -30 -45 -48 -25 -60 -20 -60 24 0 21 -3 53
-7 71 -5 29 -4 32 11 27 10 -4 24 -7 32 -7z m-757 -167 c1 -135 5 -172 17
-192 l16 -24 -33 7 c-38 7 -96 44 -104 66 -3 8 -9 81 -12 162 l-6 148 61 0 61
0 0 -167z m281 70 c0 -54 2 -135 3 -180 l4 -83 -59 0 -58 0 0 164 c0 90 -3
171 -6 180 -5 14 3 16 55 16 l61 0 0 -97z m390 -83 c26 -14 43 -73 35 -126 -8
-54 -27 -74 -71 -74 l-34 0 0 105 0 105 26 0 c14 0 34 -4 44 -10z m145 -40
c21 -18 20 -93 -2 -113 -10 -8 -34 -18 -53 -22 l-35 -6 2 83 c1 46 2 84 3 84
1 6 73 -16 85 -26z"/>
<path d="M1760 223 l0 -213 108 1 c59 1 94 4 77 8 l-30 6 -5 203 -5 203 -73 2
-72 2 0 -212z m119 -3 l-1 -180 -44 0 -44 0 0 180 0 180 45 0 46 0 -2 -180z"/>
<path d="M2434 431 c4 -6 20 -11 36 -11 16 0 30 -7 34 -16 3 -9 6 -93 6 -189
0 -186 -1 -190 -55 -198 -16 -2 38 -4 120 -4 83 0 139 2 125 4 -45 9 -50 20
-50 114 0 88 0 89 25 89 30 0 41 -19 50 -93 5 -40 15 -68 32 -88 22 -26 31
-29 85 -29 53 0 63 3 89 29 21 21 29 39 28 63 l-1 33 -12 -34 c-7 -19 -18 -37
-24 -39 -7 -2 -24 23 -38 58 -28 64 -59 90 -109 90 -14 0 -25 5 -25 10 0 6 18
10 41 10 55 0 99 42 99 95 0 94 -35 109 -274 113 -135 3 -186 1 -182 -7z m291
-30 c17 -27 23 -71 15 -108 -10 -43 -16 -49 -57 -56 l-33 -7 0 100 0 100 33
-7 c17 -3 37 -13 42 -22z m-102 -118 c4 -71 7 -154 7 -185 l0 -58 -45 0 -45 0
0 185 0 185 38 0 39 0 6 -127z m209 105 c21 -10 32 -49 24 -83 -6 -25 -24 -38
-66 -48 l-25 -6 0 79 0 79 25 -6 c14 -3 33 -10 42 -15z m-11 -223 c20 -12 71
-114 63 -126 -9 -14 -68 -10 -91 6 -22 15 -36 51 -48 117 l-6 37 33 -12 c18
-7 40 -16 49 -22z"/>
<path d="M60 298 c-19 -35 -35 -67 -35 -73 0 -14 68 -125 76 -125 4 0 24 28
46 63 l39 62 -38 65 c-21 36 -41 66 -46 68 -4 1 -23 -26 -42 -60z m74 -39 c18
-34 18 -34 -4 -71 -12 -21 -25 -38 -28 -38 -4 0 -17 18 -29 40 l-23 39 21 36
c25 42 37 41 63 -6z"/>
</g>
</svg>
